<svg xmlns="http://www.w3.org/2000/svg" viewBox="0 0 512 512"><rect width="512" height="512" fill="#fff"/><path d="M256 38 470 430H42Z" fill="#fff" stroke="#e5242a" stroke-width="28" stroke-linejoin="round"/><g fill="#151922" stroke="#151922" stroke-linecap="round" stroke-linejoin="round"><ellipse cx="273" cy="275" rx="72" ry="38"/><circle cx="338" cy="236" r="28"/><path d="M341 208c14-28 41-31 54-10l-7 13-15-6-11 18" fill="none" stroke-width="18"/><path d="M220 277 194 232l-22 15 27 49M304 276l42-39 18 17-36 54M242 300l-12 49M289 301l18 47" fill="none" stroke-width="17"/><circle cx="232" cy="325" r="12"/><circle cx="317" cy="325" r="12"/></g><path d="M182 217c-21 1-40 12-53 31" fill="none" stroke="#151922" stroke-width="15"/></svg>