<svg xmlns="http://www.w3.org/2000/svg" viewBox="0 0 520 260"><defs><linearGradient id="body" x1="0" y1="0" x2="1" y2="1"><stop stop-color="#5be2cf"/><stop offset=".48" stop-color="#2b9fdc"/><stop offset="1" stop-color="#1558a6"/></linearGradient><linearGradient id="glass" x1="0" y1="0" x2="0" y2="1"><stop stop-color="#17334a"/><stop offset="1" stop-color="#07131f"/></linearGradient><radialGradient id="lamp"><stop stop-color="#ffe2e2"/><stop offset=".34" stop-color="#ff6b73"/><stop offset="1" stop-color="#b8273d"/></radialGradient></defs><ellipse cx="266" cy="224" rx="176" ry="20" fill="#020a11" opacity=".45"/><path d="M66 183c9-48 39-80 87-94l65-20 32-34c13-13 31-20 53-20h47c30 0 55 11 73 33l32 40c19 24 26 51 28 95H66z" fill="url(#body)" stroke="#9af7ee" stroke-width="5"/><path d="M228 79l32-30c10-10 23-15 40-15h45c22 0 41 8 53 23l23 29z" fill="url(#glass)" stroke="#77e7f3" stroke-width="4"/><path d="M257 78h127" stroke="#2dd4bf" stroke-width="4" opacity=".55"/><path d="M77 165h90M363 165h80" stroke="#dffcff" stroke-width="8" stroke-linecap="round" opacity=".38"/><rect x="57" y="141" width="76" height="48" rx="14" fill="#091924" stroke="#204760" stroke-width="5"/><rect x="387" y="141" width="76" height="48" rx="14" fill="#091924" stroke="#204760" stroke-width="5"/><ellipse cx="84" cy="165" rx="22" ry="15" fill="url(#lamp)"/><ellipse cx="436" cy="165" rx="22" ry="15" fill="url(#lamp)"/><path d="M70 164 17 142" stroke="#ff6670" stroke-width="9" stroke-linecap="round" opacity=".26"/><path d="M450 164 503 142" stroke="#ff6670" stroke-width="9" stroke-linecap="round" opacity=".26"/><rect x="222" y="158" width="82" height="28" rx="8" fill="#06121c" opacity=".72" stroke="#79dfe8" stroke-width="3"/><path d="M259 172h9" stroke="#2dd4bf" stroke-width="4" stroke-linecap="round"/><circle cx="156" cy="193" r="40" fill="#07131f" stroke="#1d4864" stroke-width="9"/><circle cx="156" cy="193" r="14" fill="#2dd4bf"/><circle cx="386" cy="193" r="40" fill="#07131f" stroke="#1d4864" stroke-width="9"/><circle cx="386" cy="193" r="14" fill="#2dd4bf"/></svg>